<svg xmlns="http://www.w3.org/2000/svg" xmlns:xlink="http://www.w3.org/1999/xlink" width="500" zoomAndPan="magnify" viewBox="0 0 375 374.999991" height="500" preserveAspectRatio="xMidYMid meet" version="1.0"><defs><clipPath id="c86d00341e"><path d="M 113 64.03125 L 262.648438 64.03125 L 262.648438 310.78125 L 113 310.78125 Z M 113 64.03125 " clip-rule="nonzero"/></clipPath></defs><g clip-path="url(#c86d00341e)"><path fill="#fff163" d="M 117.664062 205.058594 L 178.933594 205.058594 C 180.253906 205.058594 181.523438 205.660156 182.347656 206.6875 C 183.1875 207.71875 183.511719 209.070312 183.222656 210.375 L 162.042969 309.320312 C 161.992188 309.542969 161.890625 310.023438 162.539062 310.3125 C 163.210938 310.621094 163.484375 310.226562 163.621094 310.039062 L 261.433594 177.210938 C 262.480469 175.789062 262.632812 174.003906 261.84375 172.445312 C 261.039062 170.867188 259.511719 169.941406 257.765625 169.941406 L 196.492188 169.941406 C 195.171875 169.941406 193.90625 169.339844 193.082031 168.3125 C 192.242188 167.28125 191.914062 165.925781 192.207031 164.625 L 213.382812 65.679688 C 213.4375 65.457031 213.539062 64.976562 212.886719 64.6875 C 212.714844 64.617188 212.578125 64.582031 212.457031 64.582031 C 212.097656 64.582031 211.910156 64.824219 211.808594 64.960938 L 113.996094 197.789062 C 112.949219 199.210938 112.792969 200.996094 113.582031 202.554688 C 114.390625 204.132812 115.914062 205.058594 117.664062 205.058594 " fill-opacity="1" fill-rule="nonzero"/></g></svg>