<svg xmlns="http://www.w3.org/2000/svg" xmlns:xlink="http://www.w3.org/1999/xlink" width="1500" zoomAndPan="magnify" viewBox="0 0 1125 374.999991" height="500" preserveAspectRatio="xMidYMid meet" version="1.0"><defs><g/><clipPath id="1e70bd3a9e"><path d="M 203.191406 4.148438 L 299.203125 4.148438 L 299.203125 161.886719 L 203.191406 161.886719 Z M 203.191406 4.148438 " clip-rule="nonzero"/></clipPath><clipPath id="888bceeb29"><path d="M 285 0.28125 L 628 0.28125 L 628 196.839844 L 285 196.839844 Z M 285 0.28125 " clip-rule="nonzero"/></clipPath><clipPath id="a5c639edb0"><rect x="0" width="343" y="0" height="197"/></clipPath><clipPath id="fec0716e52"><path d="M 0.558594 0.28125 L 201 0.28125 L 201 196.839844 L 0.558594 196.839844 Z M 0.558594 0.28125 " clip-rule="nonzero"/></clipPath><clipPath id="d94e601042"><rect x="0" width="201" y="0" height="197"/></clipPath><clipPath id="0c02a9ad21"><path d="M 626 0.28125 L 953.359375 0.28125 L 953.359375 196.839844 L 626 196.839844 Z M 626 0.28125 " clip-rule="nonzero"/></clipPath><clipPath id="1348067b95"><path d="M 59 0.28125 L 127 0.28125 L 127 140 L 59 140 Z M 59 0.28125 " clip-rule="nonzero"/></clipPath><clipPath id="5b4254663e"><rect x="0" width="328" y="0" height="197"/></clipPath><clipPath id="d2a83eecbe"><rect x="0" width="954" y="0" height="197"/></clipPath></defs><g transform="matrix(1, 0, 0, 1, 118, 89)"><g clip-path="url(#d2a83eecbe)"><g clip-path="url(#1e70bd3a9e)"><path fill="#fff163" d="M 206.410156 94.640625 L 245.722656 94.640625 C 246.570312 94.640625 247.382812 95.023438 247.910156 95.683594 C 248.449219 96.34375 248.660156 97.214844 248.472656 98.050781 L 234.882812 161.539062 C 234.851562 161.679688 234.785156 161.988281 235.203125 162.175781 C 235.632812 162.375 235.808594 162.121094 235.898438 162 L 298.65625 76.769531 C 299.328125 75.859375 299.425781 74.714844 298.921875 73.710938 C 298.402344 72.699219 297.425781 72.105469 296.300781 72.105469 L 256.988281 72.105469 C 256.140625 72.105469 255.328125 71.722656 254.800781 71.0625 C 254.261719 70.402344 254.050781 69.53125 254.238281 68.695312 L 267.828125 5.210938 C 267.859375 5.066406 267.925781 4.757812 267.507812 4.570312 C 267.398438 4.527344 267.308594 4.503906 267.234375 4.503906 C 267 4.503906 266.878906 4.660156 266.8125 4.746094 L 204.054688 89.976562 C 203.382812 90.886719 203.285156 92.03125 203.789062 93.035156 C 204.308594 94.046875 205.285156 94.640625 206.410156 94.640625 " fill-opacity="1" fill-rule="nonzero"/></g><g clip-path="url(#888bceeb29)"><g transform="matrix(1, 0, 0, 1, 285, 0)"><g clip-path="url(#a5c639edb0)"><g fill="#ffffff" fill-opacity="1"><g transform="translate(3.328483, 139.262314)"><g><path d="M 1.265625 -104.640625 L 1.265625 -130.796875 L 93.21875 -130.796875 L 93.21875 -104.640625 L 62.15625 -104.640625 L 62.15625 0 L 32.34375 0 L 32.34375 -104.640625 Z M 1.265625 -104.640625 "/></g></g></g><g fill="#ffffff" fill-opacity="1"><g transform="translate(97.806526, 139.262314)"><g><path d="M 119.390625 -130.796875 L 54.546875 -26.15625 L 115.109375 -26.15625 L 115.109375 0 L 2.53125 0 L 67.21875 -104.640625 L 11.734375 -104.640625 L 11.734375 -130.796875 Z M 119.390625 -130.796875 "/></g></g></g><g fill="#ffffff" fill-opacity="1"><g transform="translate(219.708569, 139.262314)"><g><path d="M 119.390625 -130.796875 L 54.546875 -26.15625 L 115.109375 -26.15625 L 115.109375 0 L 2.53125 0 L 67.21875 -104.640625 L 11.734375 -104.640625 L 11.734375 -130.796875 Z M 119.390625 -130.796875 "/></g></g></g></g></g></g><g clip-path="url(#fec0716e52)"><g transform="matrix(1, 0, 0, 1, 0.000000000000014211, 0)"><g clip-path="url(#d94e601042)"><g fill="#ffffff" fill-opacity="1"><g transform="translate(2.042859, 139.262314)"><g><path d="M 9.515625 -130.796875 L 50.09375 -130.796875 C 62.363281 -130.796875 72.144531 -128.179688 79.4375 -122.953125 C 86.726562 -117.722656 90.375 -109.238281 90.375 -97.5 C 90.375 -84.394531 84.929688 -75.039062 74.046875 -69.4375 C 92.648438 -66.164062 101.953125 -55.175781 101.953125 -36.46875 C 101.953125 -25.476562 98.144531 -16.648438 90.53125 -9.984375 C 82.914062 -3.328125 72.453125 0 59.140625 0 L 9.515625 0 Z M 39.3125 -79.59375 L 41.703125 -79.59375 C 48.359375 -79.59375 53.320312 -80.753906 56.59375 -83.078125 C 59.875 -85.398438 61.515625 -89.207031 61.515625 -94.5 C 61.515625 -103.375 54.910156 -107.8125 41.703125 -107.8125 L 39.3125 -107.8125 Z M 39.3125 -22.984375 L 48.671875 -22.984375 C 63.253906 -22.984375 70.546875 -27.847656 70.546875 -37.578125 C 70.546875 -43.390625 68.722656 -47.5625 65.078125 -50.09375 C 61.429688 -52.632812 55.960938 -53.90625 48.671875 -53.90625 L 39.3125 -53.90625 Z M 39.3125 -22.984375 "/></g></g></g><g fill="#ffffff" fill-opacity="1"><g transform="translate(107.617322, 139.262314)"><g><path d="M 39.3125 -130.796875 L 39.3125 -26.15625 L 84.34375 -26.15625 L 84.34375 0 L 9.515625 0 L 9.515625 -130.796875 Z M 39.3125 -130.796875 "/></g></g></g></g></g></g><g clip-path="url(#0c02a9ad21)"><g transform="matrix(1, 0, 0, 1, 626, 0)"><g clip-path="url(#5b4254663e)"><g fill="#ffffff" fill-opacity="1"><g transform="translate(1.563342, 139.262314)"><g><path d="M 27.59375 -33.921875 C 32.664062 -33.921875 36.96875 -32.148438 40.5 -28.609375 C 44.039062 -25.078125 45.8125 -20.773438 45.8125 -15.703125 C 45.8125 -10.734375 44.039062 -6.476562 40.5 -2.9375 C 36.96875 0.601562 32.664062 2.375 27.59375 2.375 C 22.625 2.375 18.367188 0.601562 14.828125 -2.9375 C 11.285156 -6.476562 9.515625 -10.734375 9.515625 -15.703125 C 9.515625 -20.773438 11.285156 -25.078125 14.828125 -28.609375 C 18.367188 -32.148438 22.625 -33.921875 27.59375 -33.921875 Z M 27.59375 -33.921875 "/></g></g></g><g clip-path="url(#1348067b95)"><g fill="#ffffff" fill-opacity="1"><g transform="translate(56.886908, 139.262314)"><g><path d="M 14.265625 -81.328125 L 14.265625 -98.609375 C 14.367188 -110.765625 17.222656 -120.488281 22.828125 -127.78125 C 28.429688 -135.082031 36.203125 -138.734375 46.140625 -138.734375 C 50.367188 -138.734375 54.410156 -138.125 58.265625 -136.90625 C 62.117188 -135.6875 64.894531 -134.441406 66.59375 -133.171875 L 69.28125 -131.4375 L 59.453125 -111.609375 C 56.921875 -113.097656 54.117188 -113.84375 51.046875 -113.84375 C 47.554688 -113.84375 45.226562 -112.648438 44.0625 -110.265625 C 42.90625 -107.890625 42.328125 -103.742188 42.328125 -97.828125 L 42.328125 -81.328125 L 61.046875 -81.328125 L 61.046875 -59.9375 L 42.328125 -59.9375 L 42.328125 0 L 14.265625 0 L 14.265625 -59.9375 L 2.53125 -59.9375 L 2.53125 -81.328125 Z M 14.265625 -81.328125 "/></g></g></g></g><g fill="#ffffff" fill-opacity="1"><g transform="translate(116.331969, 139.262314)"><g><path d="M 35.984375 -81.328125 L 35.984375 -42.65625 C 35.984375 -34.613281 37.195312 -28.898438 39.625 -25.515625 C 42.0625 -22.140625 46.1875 -20.453125 52 -20.453125 C 57.8125 -20.453125 61.929688 -22.140625 64.359375 -25.515625 C 66.796875 -28.898438 68.015625 -34.613281 68.015625 -42.65625 L 68.015625 -81.328125 L 96.078125 -81.328125 L 96.078125 -35.828125 C 96.078125 -22.296875 92.5625 -12.546875 85.53125 -6.578125 C 78.507812 -0.609375 67.332031 2.375 52 2.375 C 36.675781 2.375 25.5 -0.609375 18.46875 -6.578125 C 11.4375 -12.546875 7.921875 -22.296875 7.921875 -35.828125 L 7.921875 -81.328125 Z M 35.984375 -81.328125 "/></g></g></g><g fill="#ffffff" fill-opacity="1"><g transform="translate(220.3212, 139.262314)"><g><path d="M 9.515625 0 L 9.515625 -81.328125 L 37.578125 -81.328125 L 37.578125 -72.765625 L 37.890625 -72.765625 C 45.179688 -80.066406 52.953125 -83.71875 61.203125 -83.71875 C 65.210938 -83.71875 69.195312 -83.1875 73.15625 -82.125 C 77.125 -81.070312 80.929688 -79.4375 84.578125 -77.21875 C 88.222656 -75 91.179688 -71.851562 93.453125 -67.78125 C 95.734375 -63.707031 96.875 -58.976562 96.875 -53.59375 L 96.875 0 L 68.8125 0 L 68.8125 -45.984375 C 68.8125 -50.210938 67.460938 -53.910156 64.765625 -57.078125 C 62.066406 -60.242188 58.550781 -61.828125 54.21875 -61.828125 C 49.988281 -61.828125 46.15625 -60.1875 42.71875 -56.90625 C 39.289062 -53.632812 37.578125 -49.992188 37.578125 -45.984375 L 37.578125 0 Z M 9.515625 0 "/></g></g></g></g></g></g></g></g></svg>