<svg xmlns="http://www.w3.org/2000/svg" xmlns:xlink="http://www.w3.org/1999/xlink" width="500" zoomAndPan="magnify" viewBox="0 0 375 374.999991" height="500" preserveAspectRatio="xMidYMid meet" version="1.0"><defs><g/><clipPath id="856f11f7fc"><path d="M 107.042969 156.546875 L 138.542969 156.546875 L 138.542969 208.296875 L 107.042969 208.296875 Z M 107.042969 156.546875 " clip-rule="nonzero"/></clipPath><clipPath id="fd3b4d05a5"><rect x="0" width="113" y="0" height="65"/></clipPath><clipPath id="674366e30c"><rect x="0" width="67" y="0" height="65"/></clipPath><clipPath id="7ee2f5c08d"><path d="M 20 0.28125 L 43 0.28125 L 43 46 L 20 46 Z M 20 0.28125 " clip-rule="nonzero"/></clipPath><clipPath id="b97f71f535"><rect x="0" width="109" y="0" height="65"/></clipPath></defs><g clip-path="url(#856f11f7fc)"><path fill="#fff163" d="M 108.097656 186.234375 L 120.996094 186.234375 C 121.273438 186.234375 121.539062 186.359375 121.714844 186.578125 C 121.890625 186.792969 121.960938 187.078125 121.898438 187.351562 L 117.441406 208.179688 C 117.429688 208.226562 117.40625 208.328125 117.542969 208.390625 C 117.683594 208.457031 117.742188 208.371094 117.773438 208.332031 L 138.363281 180.371094 C 138.582031 180.070312 138.613281 179.695312 138.449219 179.367188 C 138.277344 179.035156 137.957031 178.839844 137.589844 178.839844 L 124.691406 178.839844 C 124.414062 178.839844 124.148438 178.714844 123.972656 178.496094 C 123.796875 178.28125 123.726562 177.996094 123.789062 177.722656 L 128.246094 156.894531 C 128.257812 156.847656 128.28125 156.746094 128.144531 156.683594 C 128.105469 156.667969 128.078125 156.664062 128.050781 156.664062 C 127.976562 156.664062 127.9375 156.714844 127.914062 156.742188 L 107.324219 184.703125 C 107.105469 185.003906 107.074219 185.378906 107.238281 185.707031 C 107.410156 186.039062 107.730469 186.234375 108.097656 186.234375 " fill-opacity="1" fill-rule="nonzero"/></g><g transform="matrix(1, 0, 0, 1, 134, 155)"><g clip-path="url(#fd3b4d05a5)"><g fill="#ffffff" fill-opacity="1"><g transform="translate(0.973779, 45.873105)"><g><path d="M 0.421875 -34.328125 L 0.421875 -42.90625 L 30.578125 -42.90625 L 30.578125 -34.328125 L 20.390625 -34.328125 L 20.390625 0 L 10.609375 0 L 10.609375 -34.328125 Z M 0.421875 -34.328125 "/></g></g></g><g fill="#ffffff" fill-opacity="1"><g transform="translate(31.969689, 45.873105)"><g><path d="M 39.171875 -42.90625 L 17.890625 -8.578125 L 37.765625 -8.578125 L 37.765625 0 L 0.828125 0 L 22.046875 -34.328125 L 3.84375 -34.328125 L 3.84375 -42.90625 Z M 39.171875 -42.90625 "/></g></g></g><g fill="#ffffff" fill-opacity="1"><g transform="translate(71.962736, 45.873105)"><g><path d="M 39.171875 -42.90625 L 17.890625 -8.578125 L 37.765625 -8.578125 L 37.765625 0 L 0.828125 0 L 22.046875 -34.328125 L 3.84375 -34.328125 L 3.84375 -42.90625 Z M 39.171875 -42.90625 "/></g></g></g></g></g><g transform="matrix(1, 0, 0, 1, 40, 155)"><g clip-path="url(#674366e30c)"><g fill="#ffffff" fill-opacity="1"><g transform="translate(1.050532, 45.873105)"><g><path d="M 3.125 -42.90625 L 16.4375 -42.90625 C 20.457031 -42.90625 23.664062 -42.046875 26.0625 -40.328125 C 28.457031 -38.617188 29.65625 -35.835938 29.65625 -31.984375 C 29.65625 -27.691406 27.867188 -24.625 24.296875 -22.78125 C 30.398438 -21.707031 33.453125 -18.101562 33.453125 -11.96875 C 33.453125 -8.351562 32.203125 -5.453125 29.703125 -3.265625 C 27.203125 -1.085938 23.769531 0 19.40625 0 L 3.125 0 Z M 12.90625 -26.109375 L 13.6875 -26.109375 C 15.863281 -26.109375 17.488281 -26.488281 18.5625 -27.25 C 19.644531 -28.019531 20.1875 -29.269531 20.1875 -31 C 20.1875 -33.914062 18.019531 -35.375 13.6875 -35.375 L 12.90625 -35.375 Z M 12.90625 -7.546875 L 15.96875 -7.546875 C 20.75 -7.546875 23.140625 -9.140625 23.140625 -12.328125 C 23.140625 -14.234375 22.539062 -15.601562 21.34375 -16.4375 C 20.15625 -17.269531 18.363281 -17.6875 15.96875 -17.6875 L 12.90625 -17.6875 Z M 12.90625 -7.546875 "/></g></g></g><g fill="#ffffff" fill-opacity="1"><g transform="translate(35.686903, 45.873105)"><g><path d="M 12.90625 -42.90625 L 12.90625 -8.578125 L 27.671875 -8.578125 L 27.671875 0 L 3.125 0 L 3.125 -42.90625 Z M 12.90625 -42.90625 "/></g></g></g></g></g><g transform="matrix(1, 0, 0, 1, 246, 155)"><g clip-path="url(#b97f71f535)"><g fill="#ffffff" fill-opacity="1"><g transform="translate(1.349023, 45.873105)"><g><path d="M 9.046875 -11.125 C 10.710938 -11.125 12.125 -10.539062 13.28125 -9.375 C 14.445312 -8.21875 15.03125 -6.8125 15.03125 -5.15625 C 15.03125 -3.519531 14.445312 -2.117188 13.28125 -0.953125 C 12.125 0.203125 10.710938 0.78125 9.046875 0.78125 C 7.421875 0.78125 6.023438 0.203125 4.859375 -0.953125 C 3.703125 -2.117188 3.125 -3.519531 3.125 -5.15625 C 3.125 -6.8125 3.703125 -8.21875 4.859375 -9.375 C 6.023438 -10.539062 7.421875 -11.125 9.046875 -11.125 Z M 9.046875 -11.125 "/></g></g></g><g clip-path="url(#7ee2f5c08d)"><g fill="#ffffff" fill-opacity="1"><g transform="translate(19.499317, 45.873105)"><g><path d="M 4.6875 -26.6875 L 4.6875 -32.359375 C 4.71875 -36.335938 5.648438 -39.523438 7.484375 -41.921875 C 9.328125 -44.316406 11.878906 -45.515625 15.140625 -45.515625 C 16.523438 -45.515625 17.847656 -45.3125 19.109375 -44.90625 C 20.378906 -44.507812 21.289062 -44.101562 21.84375 -43.6875 L 22.734375 -43.125 L 19.5 -36.625 C 18.664062 -37.101562 17.75 -37.34375 16.75 -37.34375 C 15.601562 -37.34375 14.835938 -36.953125 14.453125 -36.171875 C 14.078125 -35.390625 13.890625 -34.03125 13.890625 -32.09375 L 13.890625 -26.6875 L 20.03125 -26.6875 L 20.03125 -19.65625 L 13.890625 -19.65625 L 13.890625 0 L 4.6875 0 L 4.6875 -19.65625 L 0.828125 -19.65625 L 0.828125 -26.6875 Z M 4.6875 -26.6875 "/></g></g></g></g><g fill="#ffffff" fill-opacity="1"><g transform="translate(39.001772, 45.873105)"><g><path d="M 11.8125 -26.6875 L 11.8125 -13.984375 C 11.8125 -11.347656 12.207031 -9.472656 13 -8.359375 C 13.800781 -7.253906 15.15625 -6.703125 17.0625 -6.703125 C 18.96875 -6.703125 20.316406 -7.253906 21.109375 -8.359375 C 21.910156 -9.472656 22.3125 -11.347656 22.3125 -13.984375 L 22.3125 -26.6875 L 31.515625 -26.6875 L 31.515625 -11.75 C 31.515625 -7.3125 30.363281 -4.113281 28.0625 -2.15625 C 25.757812 -0.195312 22.09375 0.78125 17.0625 0.78125 C 12.03125 0.78125 8.359375 -0.195312 6.046875 -2.15625 C 3.742188 -4.113281 2.59375 -7.3125 2.59375 -11.75 L 2.59375 -26.6875 Z M 11.8125 -26.6875 "/></g></g></g><g fill="#ffffff" fill-opacity="1"><g transform="translate(73.118068, 45.873105)"><g><path d="M 3.125 0 L 3.125 -26.6875 L 12.328125 -26.6875 L 12.328125 -23.875 L 12.4375 -23.875 C 14.820312 -26.269531 17.367188 -27.46875 20.078125 -27.46875 C 21.390625 -27.46875 22.695312 -27.289062 24 -26.9375 C 25.300781 -26.59375 26.550781 -26.054688 27.75 -25.328125 C 28.945312 -24.597656 29.914062 -23.566406 30.65625 -22.234375 C 31.40625 -20.898438 31.78125 -19.347656 31.78125 -17.578125 L 31.78125 0 L 22.578125 0 L 22.578125 -15.078125 C 22.578125 -16.472656 22.132812 -17.6875 21.25 -18.71875 C 20.363281 -19.757812 19.210938 -20.28125 17.796875 -20.28125 C 16.398438 -20.28125 15.140625 -19.742188 14.015625 -18.671875 C 12.890625 -17.597656 12.328125 -16.398438 12.328125 -15.078125 L 12.328125 0 Z M 3.125 0 "/></g></g></g></g></g></svg>