<svg xmlns="http://www.w3.org/2000/svg" xmlns:xlink="http://www.w3.org/1999/xlink" width="1500" zoomAndPan="magnify" viewBox="0 0 1125 374.999991" height="500" preserveAspectRatio="xMidYMid meet" version="1.0"><defs><g/><clipPath id="49fd52b74e"><path d="M 225.273438 5 L 331.953125 5 L 331.953125 179.925781 L 225.273438 179.925781 Z M 225.273438 5 " clip-rule="nonzero"/></clipPath><clipPath id="c91ce8422a"><path d="M 317 0.238281 L 697 0.238281 L 697 218.640625 L 317 218.640625 Z M 317 0.238281 " clip-rule="nonzero"/></clipPath><clipPath id="e7874e1c6a"><rect x="0" width="380" y="0" height="219"/></clipPath><clipPath id="f126622a0f"><path d="M 0.28125 0.238281 L 222 0.238281 L 222 218.640625 L 0.28125 218.640625 Z M 0.28125 0.238281 " clip-rule="nonzero"/></clipPath><clipPath id="e4b66eefcc"><rect x="0" width="222" y="0" height="219"/></clipPath><clipPath id="24c3e3baa6"><path d="M 696 0.238281 L 1058.679688 0.238281 L 1058.679688 218.640625 L 696 218.640625 Z M 696 0.238281 " clip-rule="nonzero"/></clipPath><clipPath id="6a4cff7681"><path d="M 65 0.238281 L 140 0.238281 L 140 155 L 65 155 Z M 65 0.238281 " clip-rule="nonzero"/></clipPath><clipPath id="ec63fffefd"><rect x="0" width="363" y="0" height="219"/></clipPath><clipPath id="034f4e4c72"><rect x="0" width="1059" y="0" height="219"/></clipPath></defs><g transform="matrix(1, 0, 0, 1, 41, 78)"><g clip-path="url(#034f4e4c72)"><g clip-path="url(#49fd52b74e)"><path fill="#fff163" d="M 228.847656 105.210938 L 272.53125 105.210938 C 273.472656 105.210938 274.375 105.640625 274.964844 106.371094 C 275.5625 107.105469 275.792969 108.070312 275.585938 109 L 260.488281 179.542969 C 260.453125 179.699219 260.378906 180.042969 260.84375 180.25 C 261.320312 180.46875 261.515625 180.1875 261.613281 180.054688 L 331.347656 85.355469 C 332.09375 84.34375 332.203125 83.070312 331.640625 81.957031 C 331.066406 80.832031 329.976562 80.171875 328.730469 80.171875 L 285.050781 80.171875 C 284.109375 80.171875 283.203125 79.746094 282.617188 79.011719 C 282.015625 78.277344 281.785156 77.3125 281.992188 76.382812 L 297.089844 5.84375 C 297.128906 5.683594 297.199219 5.34375 296.734375 5.132812 C 296.613281 5.085938 296.515625 5.0625 296.429688 5.0625 C 296.175781 5.0625 296.039062 5.230469 295.964844 5.332031 L 226.234375 100.027344 C 225.488281 101.042969 225.378906 102.3125 225.9375 103.425781 C 226.515625 104.550781 227.601562 105.210938 228.847656 105.210938 " fill-opacity="1" fill-rule="nonzero"/></g><g clip-path="url(#c91ce8422a)"><g transform="matrix(1, 0, 0, 1, 317, 0)"><g clip-path="url(#e7874e1c6a)"><g fill="#ffffff" fill-opacity="1"><g transform="translate(2.870525, 154.791377)"><g><path d="M 1.40625 -116.265625 L 1.40625 -145.34375 L 103.59375 -145.34375 L 103.59375 -116.265625 L 69.0625 -116.265625 L 69.0625 0 L 35.9375 0 L 35.9375 -116.265625 Z M 1.40625 -116.265625 "/></g></g></g><g fill="#ffffff" fill-opacity="1"><g transform="translate(107.845923, 154.791377)"><g><path d="M 132.65625 -145.34375 L 60.609375 -29.0625 L 127.90625 -29.0625 L 127.90625 0 L 2.8125 0 L 74.703125 -116.265625 L 13.03125 -116.265625 L 13.03125 -145.34375 Z M 132.65625 -145.34375 "/></g></g></g><g fill="#ffffff" fill-opacity="1"><g transform="translate(243.292372, 154.791377)"><g><path d="M 132.65625 -145.34375 L 60.609375 -29.0625 L 127.90625 -29.0625 L 127.90625 0 L 2.8125 0 L 74.703125 -116.265625 L 13.03125 -116.265625 L 13.03125 -145.34375 Z M 132.65625 -145.34375 "/></g></g></g></g></g></g><g clip-path="url(#f126622a0f)"><g transform="matrix(1, 0, 0, 1, -0.000000000000007105, 0)"><g clip-path="url(#e4b66eefcc)"><g fill="#ffffff" fill-opacity="1"><g transform="translate(1.775978, 154.791377)"><g><path d="M 10.5625 -145.34375 L 55.671875 -145.34375 C 69.296875 -145.34375 80.160156 -142.4375 88.265625 -136.625 C 96.367188 -130.8125 100.421875 -121.382812 100.421875 -108.34375 C 100.421875 -93.78125 94.367188 -83.382812 82.265625 -77.15625 C 102.941406 -73.519531 113.28125 -61.304688 113.28125 -40.515625 C 113.28125 -28.304688 109.050781 -18.5 100.59375 -11.09375 C 92.132812 -3.695312 80.507812 0 65.71875 0 L 10.5625 0 Z M 43.6875 -88.4375 L 46.328125 -88.4375 C 53.734375 -88.4375 59.253906 -89.726562 62.890625 -92.3125 C 66.535156 -94.894531 68.359375 -99.125 68.359375 -105 C 68.359375 -114.863281 61.015625 -119.796875 46.328125 -119.796875 L 43.6875 -119.796875 Z M 43.6875 -25.546875 L 54.078125 -25.546875 C 70.285156 -25.546875 78.390625 -30.945312 78.390625 -41.75 C 78.390625 -48.207031 76.363281 -52.84375 72.3125 -55.65625 C 68.257812 -58.476562 62.179688 -59.890625 54.078125 -59.890625 L 43.6875 -59.890625 Z M 43.6875 -25.546875 "/></g></g></g><g fill="#ffffff" fill-opacity="1"><g transform="translate(119.080707, 154.791377)"><g><path d="M 43.6875 -145.34375 L 43.6875 -29.0625 L 93.71875 -29.0625 L 93.71875 0 L 10.5625 0 L 10.5625 -145.34375 Z M 43.6875 -145.34375 "/></g></g></g></g></g></g><g clip-path="url(#24c3e3baa6)"><g transform="matrix(1, 0, 0, 1, 696, 0)"><g clip-path="url(#ec63fffefd)"><g fill="#ffffff" fill-opacity="1"><g transform="translate(0.797369, 154.791377)"><g><path d="M 30.65625 -37.703125 C 36.289062 -37.703125 41.070312 -35.734375 45 -31.796875 C 48.9375 -27.859375 50.90625 -23.070312 50.90625 -17.4375 C 50.90625 -11.914062 48.9375 -7.1875 45 -3.25 C 41.070312 0.675781 36.289062 2.640625 30.65625 2.640625 C 25.132812 2.640625 20.40625 0.675781 16.46875 -3.25 C 12.53125 -7.1875 10.5625 -11.914062 10.5625 -17.4375 C 10.5625 -23.070312 12.53125 -27.859375 16.46875 -31.796875 C 20.40625 -35.734375 25.132812 -37.703125 30.65625 -37.703125 Z M 30.65625 -37.703125 "/></g></g></g><g clip-path="url(#6a4cff7681)"><g fill="#ffffff" fill-opacity="1"><g transform="translate(62.267877, 154.791377)"><g><path d="M 15.859375 -90.375 L 15.859375 -109.578125 C 15.972656 -123.085938 19.140625 -133.894531 25.359375 -142 C 31.585938 -150.101562 40.222656 -154.15625 51.265625 -154.15625 C 55.960938 -154.15625 60.453125 -153.476562 64.734375 -152.125 C 69.023438 -150.769531 72.109375 -149.390625 73.984375 -147.984375 L 76.984375 -146.046875 L 66.0625 -124.03125 C 63.25 -125.664062 60.140625 -126.484375 56.734375 -126.484375 C 52.847656 -126.484375 50.257812 -125.160156 48.96875 -122.515625 C 47.675781 -119.878906 47.03125 -115.273438 47.03125 -108.703125 L 47.03125 -90.375 L 67.828125 -90.375 L 67.828125 -66.59375 L 47.03125 -66.59375 L 47.03125 0 L 15.859375 0 L 15.859375 -66.59375 L 2.8125 -66.59375 L 2.8125 -90.375 Z M 15.859375 -90.375 "/></g></g></g></g><g fill="#ffffff" fill-opacity="1"><g transform="translate(128.317815, 154.791377)"><g><path d="M 39.984375 -90.375 L 39.984375 -47.390625 C 39.984375 -38.460938 41.332031 -32.117188 44.03125 -28.359375 C 46.738281 -24.597656 51.320312 -22.71875 57.78125 -22.71875 C 64.238281 -22.71875 68.816406 -24.597656 71.515625 -28.359375 C 74.222656 -32.117188 75.578125 -38.460938 75.578125 -47.390625 L 75.578125 -90.375 L 106.765625 -90.375 L 106.765625 -39.8125 C 106.765625 -24.78125 102.859375 -13.945312 95.046875 -7.3125 C 87.234375 -0.675781 74.8125 2.640625 57.78125 2.640625 C 40.75 2.640625 28.328125 -0.675781 20.515625 -7.3125 C 12.710938 -13.945312 8.8125 -24.78125 8.8125 -39.8125 L 8.8125 -90.375 Z M 39.984375 -90.375 "/></g></g></g><g fill="#ffffff" fill-opacity="1"><g transform="translate(243.861179, 154.791377)"><g><path d="M 10.5625 0 L 10.5625 -90.375 L 41.75 -90.375 L 41.75 -80.859375 L 42.109375 -80.859375 C 50.210938 -88.960938 58.84375 -93.015625 68 -93.015625 C 72.46875 -93.015625 76.898438 -92.425781 81.296875 -91.25 C 85.703125 -90.082031 89.929688 -88.265625 93.984375 -85.796875 C 98.035156 -83.328125 101.320312 -79.832031 103.84375 -75.3125 C 106.375 -70.789062 107.640625 -65.535156 107.640625 -59.546875 L 107.640625 0 L 76.453125 0 L 76.453125 -51.09375 C 76.453125 -55.789062 74.953125 -59.898438 71.953125 -63.421875 C 68.960938 -66.941406 65.0625 -68.703125 60.25 -68.703125 C 55.550781 -68.703125 51.289062 -66.878906 47.46875 -63.234375 C 43.65625 -59.597656 41.75 -55.550781 41.75 -51.09375 L 41.75 0 Z M 10.5625 0 "/></g></g></g></g></g></g></g></g></svg>